<?xml version="1.0" encoding="utf-8"?>
<!DOCTYPE svg PUBLIC "-//W3C//DTD SVG 1.1//EN" "http://www.w3.org/Graphics/SVG/1.1/DTD/svg11.dtd">
<svg xmlns="http://www.w3.org/2000/svg" version="1.1" viewBox="0 0 512 512">
    <path fill="#ffa000" d="M 297.036 205.578 l -36.334 33.809 l -33.716 -68.005 l 17.446 -39.108 c 4.416 -7.84 11.621 -7.855 16.037 0 L 297.036 205.578 Z"/>
    <polygon fill="#f57f17" points="260.702,239.386 124.924,365.697 226.986,171.381"/>
    <path fill="#ffca28" d="M 336.776 153.901 c 6.491 -6.239 13.202 -4.111 14.912 4.729 l 35.342 205.375 L 269.873 434.22 c -4.1 2.264 -14.957 3.246 -14.957 3.246 s -9.91 -1.185 -13.687 -3.281 L 124.92 365.69 L 336.776 153.901 Z"/>
    <path fill="#ffa000" d="M 226.986 171.381 L 124.924 365.697 l 45.46 -283.998 c 1.674 -8.847 6.71 -9.699 11.203 -1.89 L 226.986 171.381 Z"/>
</svg>
